<svg xmlns="http://www.w3.org/2000/svg" version="1.1" xmlns:xlink="http://www.w3.org/1999/xlink" width="512" height="512" x="0" y="0" viewBox="0 0 48 48" style="enable-background:new 0 0 512 512" xml:space="preserve" class=""><g><path d="M24 0a3.36 3.36 0 1 0 3.37 3.36A3.37 3.37 0 0 0 24 0zM13.67 2.77A3.36 3.36 0 1 0 17 6.12a3.35 3.35 0 0 0-3.33-3.35zM6.12 10.32a3.36 3.36 0 1 0 3.36 3.36 3.36 3.36 0 0 0-3.36-3.36zM6.71 24a3.36 3.36 0 1 0-3.35 3.35A3.36 3.36 0 0 0 6.71 24zM6.12 31a3.36 3.36 0 1 0 3.36 3.35A3.35 3.35 0 0 0 6.12 31zM13.67 38.52A3.36 3.36 0 1 0 17 41.88a3.36 3.36 0 0 0-3.33-3.36zM24 41.29a3.36 3.36 0 1 0 3.37 3.35A3.36 3.36 0 0 0 24 41.29zM34.31 38.52a3.36 3.36 0 1 0 3.37 3.36 3.36 3.36 0 0 0-3.37-3.36zM41.87 31a3.36 3.36 0 1 0 3.36 3.35A3.35 3.35 0 0 0 41.87 31zM44.64 20.65A3.35 3.35 0 1 0 48 24a3.35 3.35 0 0 0-3.36-3.35zM41.88 17a3.36 3.36 0 1 0-3.36-3.35A3.35 3.35 0 0 0 41.88 17zM34.31 2.77a3.36 3.36 0 1 0 3.37 3.35 3.35 3.35 0 0 0-3.37-3.35z" fill="#0083c6" opacity="1" data-original="#000000" class=""></path></g></svg>