<svg width="55" height="64" viewBox="0 0 55 64" fill="none" xmlns="http://www.w3.org/2000/svg">
<path d="M54.6481 26.5569C54.4718 17.3694 53.1918 10.5931 53.2093 10.5869C52.6768 9.54813 51.7431 8.67938 50.6006 8.23563C43.1006 5.32688 35.7256 2.55063 28.5356 0.181875C27.8006 -0.060625 27.0256 -0.060625 26.2918 0.181875C19.1031 2.54437 11.7293 5.31563 4.23059 8.22062C3.22184 8.61187 2.37559 9.33563 1.82434 10.2156C1.86684 10.2206 0.283094 15.1644 0.0130941 26.0831C-0.146906 37.0031 1.21309 40.2744 1.16809 40.2781C1.90434 42.6781 3.28184 45.1194 5.25559 47.6019C7.46184 50.3744 10.4431 53.2381 14.0443 56.0531C20.0056 60.7319 25.5843 63.5281 25.8181 63.6269C26.3243 63.8744 26.8606 64.0006 27.4131 63.9994C27.9668 63.9994 28.5031 63.8731 29.0081 63.6244C29.2431 63.5256 34.8281 60.7206 40.7868 56.0431C44.3893 53.2256 47.3706 50.3619 49.5781 47.5906C51.6931 44.9319 53.1231 42.3231 53.8143 39.7606C53.7868 39.7569 54.7868 35.7469 54.6481 26.5581V26.5569ZM30.3806 33.7231V39.5444C30.3806 41.1844 29.0518 42.5131 27.4118 42.5144C25.7718 42.5144 24.4418 41.1856 24.4418 39.5456V33.8056C22.3018 32.7419 20.8293 30.5344 20.8293 27.9831C20.8293 24.3931 23.7393 21.4819 27.3293 21.4819C30.9193 21.4819 33.8293 24.3919 33.8306 27.9819C33.8306 30.4694 32.4331 32.6306 30.3806 33.7231Z" fill="#0083c6"/>
</svg>
